# xmcd
#
# Track frame offsets:
#	182
#	13177
#	23285
#	39742
#	55445
#	67180
#	79077
#	90840
#	102940
#	116352
#	130527
#	145947
#	158172
#	172335
#	184412
#
# Disc length: 2638
#
# Revision: 3
# Processed by: cddbd v1.5.1PL0 Copyright (c) Steve Scherf et al.
# Submitted via: CDex 1.40Release
# Normalized: r2:TDELIM( - )
#
DISCID=c50a4c0f
DTITLE=This is my Country - 15 classic tracks
DYEAR=1900
DGENRE=Country
TTITLE0=Lynn Anderson - I Fall To Pieces
TTITLE1=Patsy Cline - Turn The Cards Slowly
TTITLE2=Billie Jo Spears - Blanket On The Ground
TTITLE3=Jo Anne Houston - Always On The Ground
TTITLE4=Skeeter Davis - I Forget  More Than You`ll Ever Know
TTITLE5=Dottie west - Heartbreak USA
TTITLE6=Dolly Parton - Letter To Heaven
TTITLE7=Wanda Jackson - Sweet Dreams
TTITLE8=Donna fargo - Daddy
TTITLE9=Patsy Cline - A Chuch A Courtroom And Then Goodbye
TTITLE10=Lynn Anderson - Desperado
TTITLE11=Billie Jo Spears - My Own Kind
TTITLE12=Jo Anne Houston - Tonight The Bottle Let Me Down
TTITLE13=Skeeter Davis - I Can`t Help It I`m Falling Too
TTITLE14=Dottie West - She`s Got You
EXTD=ID3G: 2
EXTT0=
EXTT1=
EXTT2=
EXTT3=
EXTT4=
EXTT5=
EXTT6=
EXTT7=
EXTT8=
EXTT9=
EXTT10=
EXTT11=
EXTT12=
EXTT13=
EXTT14=
PLAYORDER=
